<svg xmlns="http://www.w3.org/2000/svg" viewBox="0 0 80 80" id="Truck"><path d="M67.138 26.473a1 1 0 0 0-.707-.293H52.705v-9.033a1 1 0 0 0-1-1H6a1 1 0 0 0-1 1v39.017a1 1 0 0 0 1 1h7.105c.493 3.767 3.717 6.689 7.616 6.689s7.123-2.922 7.616-6.689h26.9c.492 3.767 3.716 6.689 7.616 6.689s7.123-2.922 7.615-6.689H74a1 1 0 0 0 1-1V34.75a1 1 0 0 0-.293-.708l-7.57-7.569zM73 35.163v4.395H60.508V28.18h5.509L73 35.164zM50.705 18.148V44.017H7v-25.87h43.705zM7 46.017h43.705v9.147H28.337c-.493-3.767-3.716-6.688-7.616-6.688s-7.123 2.92-7.616 6.688H7v-9.147zm13.721 15.836c-3.137 0-5.688-2.552-5.688-5.689s2.551-5.688 5.688-5.688 5.689 2.551 5.689 5.688-2.552 5.689-5.689 5.689zm42.132 0c-3.137 0-5.689-2.552-5.689-5.689s2.552-5.688 5.689-5.688 5.688 2.551 5.688 5.688-2.552 5.689-5.688 5.689zm7.615-6.689c-.492-3.767-3.716-6.688-7.615-6.688s-7.124 2.92-7.616 6.688h-2.532V28.18h5.803v12.378a1 1 0 0 0 1 1H73v13.606h-2.532z" fill="#ffffff" class="color000000 svgShape"></path><path d="M62.853 52.26a3.908 3.908 0 0 0-3.904 3.904 3.908 3.908 0 0 0 3.904 3.903 3.907 3.907 0 0 0 3.902-3.903 3.908 3.908 0 0 0-3.902-3.903zm0 5.807c-1.05 0-1.904-.854-1.904-1.903s.854-1.903 1.904-1.903 1.902.854 1.902 1.903-.853 1.903-1.902 1.903zM20.72 52.26a3.908 3.908 0 0 0-3.903 3.903 3.907 3.907 0 0 0 3.903 3.903 3.908 3.908 0 0 0 3.904-3.903 3.908 3.908 0 0 0-3.904-3.903zm0 5.806c-1.05 0-1.903-.854-1.903-1.903s.854-1.903 1.903-1.903 1.904.854 1.904 1.903-.854 1.903-1.904 1.903zM62 44h-4a1 1 0 0 0 0 2h4a1 1 0 0 0 0-2z" fill="#ffffff" class="color000000 svgShape"></path></svg>